<?xml version="1.0" encoding="UTF-8" standalone="no"?>
<!DOCTYPE svg PUBLIC "-//W3C//DTD SVG 1.1//EN"
 "http://www.w3.org/Graphics/SVG/1.1/DTD/svg11.dtd">
<!-- Generated by graphviz version 2.36.0 (20140111.2315)
 -->
<!-- Title: G Pages: 1 -->
<svg width="628pt" height="2056pt"
 viewBox="0.00 0.00 628.00 2056.00" xmlns="http://www.w3.org/2000/svg" xmlns:xlink="http://www.w3.org/1999/xlink">
<g id="graph0" class="graph" transform="scale(1 1) rotate(0) translate(4 2052)">
<title>G</title>
<polygon fill="white" stroke="none" points="-4,4 -4,-2052 624,-2052 624,4 -4,4"/>
<g id="clust1" class="cluster"><title>cluster_Global</title>
<path fill="none" stroke="gray" d="M20,-8C20,-8 600,-8 600,-8 606,-8 612,-14 612,-20 612,-20 612,-2028 612,-2028 612,-2034 606,-2040 600,-2040 600,-2040 20,-2040 20,-2040 14,-2040 8,-2034 8,-2028 8,-2028 8,-20 8,-20 8,-14 14,-8 20,-8"/>
<text text-anchor="middle" x="310" y="-2027.2" font-family="Times,serif" font-size="11.00" fill="gray">Global</text>
</g>
<g id="clust2" class="cluster"><title>cluster_\Parse</title>
<path fill="none" stroke="gray" d="M28,-16C28,-16 592,-16 592,-16 598,-16 604,-22 604,-28 604,-28 604,-1956 604,-1956 604,-1962 598,-1968 592,-1968 592,-1968 28,-1968 28,-1968 22,-1968 16,-1962 16,-1956 16,-1956 16,-28 16,-28 16,-22 22,-16 28,-16"/>
<text text-anchor="middle" x="310" y="-1955.2" font-family="Times,serif" font-size="11.00" fill="gray">Parse</text>
</g>
<g id="clust3" class="cluster"><title>cluster_\Parse\Internal</title>
<path fill="none" stroke="gray" d="M36,-338C36,-338 584,-338 584,-338 590,-338 596,-344 596,-350 596,-350 596,-722 596,-722 596,-728 590,-734 584,-734 584,-734 36,-734 36,-734 30,-734 24,-728 24,-722 24,-722 24,-350 24,-350 24,-344 30,-338 36,-338"/>
<text text-anchor="middle" x="310" y="-721.2" font-family="Times,serif" font-size="11.00" fill="gray">Internal</text>
</g>
<g id="clust4" class="cluster"><title>cluster_\Parse\HttpClients</title>
<path fill="none" stroke="gray" d="M220,-1706C220,-1706 580,-1706 580,-1706 586,-1706 592,-1712 592,-1718 592,-1718 592,-1928 592,-1928 592,-1934 586,-1940 580,-1940 580,-1940 220,-1940 220,-1940 214,-1940 208,-1934 208,-1928 208,-1928 208,-1718 208,-1718 208,-1712 214,-1706 220,-1706"/>
<text text-anchor="middle" x="400" y="-1927.2" font-family="Times,serif" font-size="11.00" fill="gray">HttpClients</text>
</g>
<!-- \\Parse\\Internal\\AddUniqueOperation -->
<g id="node1" class="node"><title>\\Parse\\Internal\\AddUniqueOperation</title>
<polygon fill="none" stroke="black" points="574,-706 436,-706 436,-670 574,-670 574,-706"/>
<text text-anchor="middle" x="505" y="-685.2" font-family="Courier,monospace" font-size="11.00">AddUniqueOperation</text>
</g>
<!-- \\Parse\\Internal\\FieldOperation -->
<g id="node8" class="node"><title>\\Parse\\Internal\\FieldOperation</title>
<polygon fill="none" stroke="black" points="323.5,-517 212.5,-517 212.5,-481 323.5,-481 323.5,-517"/>
<text text-anchor="middle" x="268" y="-496.2" font-family="Courier,monospace" font-size="11.00">FieldOperation</text>
</g>
<!-- \\Parse\\Internal\\AddUniqueOperation&#45;&gt;\\Parse\\Internal\\FieldOperation -->
<g id="edge1" class="edge"><title>\\Parse\\Internal\\AddUniqueOperation&#45;&gt;\\Parse\\Internal\\FieldOperation</title>
<path fill="none" stroke="black" stroke-dasharray="1,5" d="M435.95,-671.955C429.86,-668.913 424.085,-665.298 419,-661 365.561,-615.835 401.17,-565.286 347,-521 342.779,-517.549 338.049,-514.639 333.06,-512.185"/>
<polygon fill="none" stroke="black" points="334.426,-508.962 323.855,-508.241 331.669,-515.397 334.426,-508.962"/>
</g>
<!-- \\Parse\\Internal\\ParseRelationOperation -->
<g id="node2" class="node"><title>\\Parse\\Internal\\ParseRelationOperation</title>
<polygon fill="none" stroke="black" points="587.5,-652 422.5,-652 422.5,-616 587.5,-616 587.5,-652"/>
<text text-anchor="middle" x="505" y="-631.2" font-family="Courier,monospace" font-size="11.00">ParseRelationOperation</text>
</g>
<!-- \\Parse\\Internal\\ParseRelationOperation&#45;&gt;\\Parse\\Internal\\FieldOperation -->
<g id="edge4" class="edge"><title>\\Parse\\Internal\\ParseRelationOperation&#45;&gt;\\Parse\\Internal\\FieldOperation</title>
<path fill="none" stroke="black" stroke-dasharray="1,5" d="M435.128,-615.938C429.475,-613.328 424.015,-610.363 419,-607 377.597,-579.238 388.851,-548.082 347,-521 342.681,-518.205 338.005,-515.76 333.161,-513.621"/>
<polygon fill="none" stroke="black" points="334.277,-510.299 323.691,-509.876 331.703,-516.808 334.277,-510.299"/>
</g>
<!-- \\Parse\\Internal\\DeleteOperation -->
<g id="node3" class="node"><title>\\Parse\\Internal\\DeleteOperation</title>
<polygon fill="none" stroke="black" points="564,-598 446,-598 446,-562 564,-562 564,-598"/>
<text text-anchor="middle" x="505" y="-577.2" font-family="Courier,monospace" font-size="11.00">DeleteOperation</text>
</g>
<!-- \\Parse\\Internal\\DeleteOperation&#45;&gt;\\Parse\\Internal\\FieldOperation -->
<g id="edge9" class="edge"><title>\\Parse\\Internal\\DeleteOperation&#45;&gt;\\Parse\\Internal\\FieldOperation</title>
<path fill="none" stroke="black" stroke-dasharray="1,5" d="M445.636,-562.402C436.659,-559.425 427.54,-556.243 419,-553 386.262,-540.569 379.936,-532.895 347,-521 342.716,-519.453 338.267,-517.945 333.765,-516.491"/>
<polygon fill="none" stroke="black" points="334.455,-513.04 323.866,-513.402 332.369,-519.722 334.455,-513.04"/>
</g>
<!-- \\Parse\\Internal\\SetOperation -->
<g id="node4" class="node"><title>\\Parse\\Internal\\SetOperation</title>
<polygon fill="none" stroke="black" points="554,-544 456,-544 456,-508 554,-508 554,-544"/>
<text text-anchor="middle" x="505" y="-523.2" font-family="Courier,monospace" font-size="11.00">SetOperation</text>
</g>
<!-- \\Parse\\Internal\\SetOperation&#45;&gt;\\Parse\\Internal\\FieldOperation -->
<g id="edge10" class="edge"><title>\\Parse\\Internal\\SetOperation&#45;&gt;\\Parse\\Internal\\FieldOperation</title>
<path fill="none" stroke="black" stroke-dasharray="1,5" d="M455.877,-520.471C420.623,-516.421 372.387,-510.878 333.752,-506.44"/>
<polygon fill="none" stroke="black" points="333.975,-502.942 323.641,-505.278 333.176,-509.897 333.975,-502.942"/>
</g>
<!-- \\Parse\\Internal\\RemoveOperation -->
<g id="node5" class="node"><title>\\Parse\\Internal\\RemoveOperation</title>
<polygon fill="none" stroke="black" points="564,-490 446,-490 446,-454 564,-454 564,-490"/>
<text text-anchor="middle" x="505" y="-469.2" font-family="Courier,monospace" font-size="11.00">RemoveOperation</text>
</g>
<!-- \\Parse\\Internal\\RemoveOperation&#45;&gt;\\Parse\\Internal\\FieldOperation -->
<g id="edge15" class="edge"><title>\\Parse\\Internal\\RemoveOperation&#45;&gt;\\Parse\\Internal\\FieldOperation</title>
<path fill="none" stroke="black" stroke-dasharray="1,5" d="M445.91,-478.674C411.891,-482.583 368.855,-487.527 333.748,-491.561"/>
<polygon fill="none" stroke="black" points="333.134,-488.108 323.599,-492.727 333.933,-495.063 333.134,-488.108"/>
</g>
<!-- \\Parse\\Internal\\AddOperation -->
<g id="node6" class="node"><title>\\Parse\\Internal\\AddOperation</title>
<polygon fill="none" stroke="black" points="554,-436 456,-436 456,-400 554,-400 554,-436"/>
<text text-anchor="middle" x="505" y="-415.2" font-family="Courier,monospace" font-size="11.00">AddOperation</text>
</g>
<!-- \\Parse\\Internal\\AddOperation&#45;&gt;\\Parse\\Internal\\FieldOperation -->
<g id="edge21" class="edge"><title>\\Parse\\Internal\\AddOperation&#45;&gt;\\Parse\\Internal\\FieldOperation</title>
<path fill="none" stroke="black" stroke-dasharray="1,5" d="M455.581,-432.36C443.54,-436.21 430.725,-440.548 419,-445 386.262,-457.431 379.936,-465.105 347,-477 342.716,-478.547 338.267,-480.055 333.765,-481.509"/>
<polygon fill="none" stroke="black" points="332.369,-478.278 323.866,-484.598 334.455,-484.96 332.369,-478.278"/>
</g>
<!-- \\Parse\\Internal\\IncrementOperation -->
<g id="node7" class="node"><title>\\Parse\\Internal\\IncrementOperation</title>
<polygon fill="none" stroke="black" points="574,-382 436,-382 436,-346 574,-346 574,-382"/>
<text text-anchor="middle" x="505" y="-361.2" font-family="Courier,monospace" font-size="11.00">IncrementOperation</text>
</g>
<!-- \\Parse\\Internal\\IncrementOperation&#45;&gt;\\Parse\\Internal\\FieldOperation -->
<g id="edge24" class="edge"><title>\\Parse\\Internal\\IncrementOperation&#45;&gt;\\Parse\\Internal\\FieldOperation</title>
<path fill="none" stroke="black" stroke-dasharray="1,5" d="M435.999,-381.663C430.037,-384.369 424.273,-387.465 419,-391 377.597,-418.762 388.851,-449.918 347,-477 342.681,-479.795 338.005,-482.24 333.161,-484.379"/>
<polygon fill="none" stroke="black" points="331.703,-481.192 323.691,-488.124 334.277,-487.701 331.703,-481.192"/>
</g>
<!-- \\Parse\\Internal\\Encodable -->
<g id="node9" class="node"><title>\\Parse\\Internal\\Encodable</title>
<polygon fill="none" stroke="black" points="109.5,-382 32.5,-382 32.5,-346 109.5,-346 109.5,-382"/>
<text text-anchor="middle" x="71" y="-361.2" font-family="Courier,monospace" font-size="11.00">Encodable</text>
</g>
<!-- \\Parse\\Internal\\FieldOperation&#45;&gt;\\Parse\\Internal\\Encodable -->
<g id="edge27" class="edge"><title>\\Parse\\Internal\\FieldOperation&#45;&gt;\\Parse\\Internal\\Encodable</title>
<path fill="none" stroke="black" d="M212.196,-488.296C204.039,-485.381 196.023,-481.684 189,-477 148.608,-450.062 156.052,-421.866 117.409,-387.287"/>
<polygon fill="none" stroke="black" points="119.542,-384.508 109.635,-380.755 115.039,-389.867 119.542,-384.508"/>
</g>
<!-- \\Parse\\HttpClients\\ParseStream -->
<g id="node10" class="node"><title>\\Parse\\HttpClients\\ParseStream</title>
<polygon fill="none" stroke="black" points="550.5,-1912 459.5,-1912 459.5,-1876 550.5,-1876 550.5,-1912"/>
<text text-anchor="middle" x="505" y="-1891.2" font-family="Courier,monospace" font-size="11.00">ParseStream</text>
</g>
<!-- \\Parse\\HttpClients\\ParseCurl -->
<g id="node11" class="node"><title>\\Parse\\HttpClients\\ParseCurl</title>
<polygon fill="none" stroke="black" points="543.5,-1858 466.5,-1858 466.5,-1822 543.5,-1822 543.5,-1858"/>
<text text-anchor="middle" x="505" y="-1837.2" font-family="Courier,monospace" font-size="11.00">ParseCurl</text>
</g>
<!-- \\Parse\\HttpClients\\ParseStreamHttpClient -->
<g id="node12" class="node"><title>\\Parse\\HttpClients\\ParseStreamHttpClient</title>
<polygon fill="none" stroke="black" points="584,-1804 426,-1804 426,-1768 584,-1768 584,-1804"/>
<text text-anchor="middle" x="505" y="-1783.2" font-family="Courier,monospace" font-size="11.00">ParseStreamHttpClient</text>
</g>
<!-- \\Parse\\HttpClients\\ParseHttpable -->
<g id="node14" class="node"><title>\\Parse\\HttpClients\\ParseHttpable</title>
<polygon fill="none" stroke="black" points="320,-1777 216,-1777 216,-1741 320,-1741 320,-1777"/>
<text text-anchor="middle" x="268" y="-1756.2" font-family="Courier,monospace" font-size="11.00">ParseHttpable</text>
</g>
<!-- \\Parse\\HttpClients\\ParseStreamHttpClient&#45;&gt;\\Parse\\HttpClients\\ParseHttpable -->
<g id="edge11" class="edge"><title>\\Parse\\HttpClients\\ParseStreamHttpClient&#45;&gt;\\Parse\\HttpClients\\ParseHttpable</title>
<path fill="none" stroke="black" stroke-dasharray="1,5" d="M425.748,-1777.01C394.695,-1773.44 359.509,-1769.4 330.353,-1766.05"/>
<polygon fill="none" stroke="black" points="330.643,-1762.56 320.309,-1764.9 329.844,-1769.51 330.643,-1762.56"/>
</g>
<!-- \\Parse\\HttpClients\\ParseCurlHttpClient -->
<g id="node13" class="node"><title>\\Parse\\HttpClients\\ParseCurlHttpClient</title>
<polygon fill="none" stroke="black" points="577.5,-1750 432.5,-1750 432.5,-1714 577.5,-1714 577.5,-1750"/>
<text text-anchor="middle" x="505" y="-1729.2" font-family="Courier,monospace" font-size="11.00">ParseCurlHttpClient</text>
</g>
<!-- \\Parse\\HttpClients\\ParseCurlHttpClient&#45;&gt;\\Parse\\HttpClients\\ParseHttpable -->
<g id="edge16" class="edge"><title>\\Parse\\HttpClients\\ParseCurlHttpClient&#45;&gt;\\Parse\\HttpClients\\ParseHttpable</title>
<path fill="none" stroke="black" stroke-dasharray="1,5" d="M432.215,-1740.25C399.715,-1743.98 361.686,-1748.35 330.517,-1751.93"/>
<polygon fill="none" stroke="black" points="329.762,-1748.5 320.227,-1753.11 330.561,-1755.45 329.762,-1748.5"/>
</g>
<!-- \\Parse\\ParseClient -->
<g id="node15" class="node"><title>\\Parse\\ParseClient</title>
<polygon fill="none" stroke="black" points="550.5,-1696 459.5,-1696 459.5,-1660 550.5,-1660 550.5,-1696"/>
<text text-anchor="middle" x="505" y="-1675.2" font-family="Courier,monospace" font-size="11.00">ParseClient</text>
</g>
<!-- \\Parse\\ParseUser -->
<g id="node16" class="node"><title>\\Parse\\ParseUser</title>
<polygon fill="none" stroke="black" points="543.5,-1156 466.5,-1156 466.5,-1120 543.5,-1120 543.5,-1156"/>
<text text-anchor="middle" x="505" y="-1135.2" font-family="Courier,monospace" font-size="11.00">ParseUser</text>
</g>
<!-- \\Parse\\ParseObject -->
<g id="node20" class="node"><title>\\Parse\\ParseObject</title>
<polygon fill="none" stroke="black" points="313.5,-1075 222.5,-1075 222.5,-1039 313.5,-1039 313.5,-1075"/>
<text text-anchor="middle" x="268" y="-1054.2" font-family="Courier,monospace" font-size="11.00">ParseObject</text>
</g>
<!-- \\Parse\\ParseUser&#45;&gt;\\Parse\\ParseObject -->
<g id="edge2" class="edge"><title>\\Parse\\ParseUser&#45;&gt;\\Parse\\ParseObject</title>
<path fill="none" stroke="black" d="M466.204,-1126.45C451.424,-1121.81 434.364,-1116.32 419,-1111 386.703,-1099.82 379.151,-1095.59 347,-1084 339.333,-1081.24 331.222,-1078.37 323.244,-1075.58"/>
<polygon fill="none" stroke="black" points="324.212,-1072.21 313.617,-1072.22 321.91,-1078.82 324.212,-1072.21"/>
</g>
<!-- \\Parse\\ParseInstallation -->
<g id="node17" class="node"><title>\\Parse\\ParseInstallation</title>
<polygon fill="none" stroke="black" points="570.5,-994 439.5,-994 439.5,-958 570.5,-958 570.5,-994"/>
<text text-anchor="middle" x="505" y="-973.2" font-family="Courier,monospace" font-size="11.00">ParseInstallation</text>
</g>
<!-- \\Parse\\ParseInstallation&#45;&gt;\\Parse\\ParseObject -->
<g id="edge3" class="edge"><title>\\Parse\\ParseInstallation&#45;&gt;\\Parse\\ParseObject</title>
<path fill="none" stroke="black" d="M446.293,-994.005C437.143,-996.953 427.799,-1000.02 419,-1003 387.225,-1013.76 351.913,-1026.44 323.536,-1036.8"/>
<polygon fill="none" stroke="black" points="321.992,-1033.64 313.805,-1040.37 324.399,-1040.22 321.992,-1033.64"/>
</g>
<!-- \\Parse\\ParseApp -->
<g id="node18" class="node"><title>\\Parse\\ParseApp</title>
<polygon fill="none" stroke="black" points="540.5,-1534 469.5,-1534 469.5,-1498 540.5,-1498 540.5,-1534"/>
<text text-anchor="middle" x="505" y="-1513.2" font-family="Courier,monospace" font-size="11.00">ParseApp</text>
</g>
<!-- \\Parse\\ParseGeoPoint -->
<g id="node19" class="node"><title>\\Parse\\ParseGeoPoint</title>
<polygon fill="none" stroke="black" points="320,-330 216,-330 216,-294 320,-294 320,-330"/>
<text text-anchor="middle" x="268" y="-309.2" font-family="Courier,monospace" font-size="11.00">ParseGeoPoint</text>
</g>
<!-- \\Parse\\ParseGeoPoint&#45;&gt;\\Parse\\Internal\\Encodable -->
<g id="edge5" class="edge"><title>\\Parse\\ParseGeoPoint&#45;&gt;\\Parse\\Internal\\Encodable</title>
<path fill="none" stroke="black" stroke-dasharray="1,5" d="M215.766,-325.662C185.989,-333.603 148.716,-343.542 119.584,-351.311"/>
<polygon fill="none" stroke="black" points="118.405,-348.003 109.645,-353.961 120.209,-354.766 118.405,-348.003"/>
</g>
<!-- \\Parse\\ParseObject&#45;&gt;\\Parse\\Internal\\Encodable -->
<g id="edge6" class="edge"><title>\\Parse\\ParseObject&#45;&gt;\\Parse\\Internal\\Encodable</title>
<path fill="none" stroke="black" stroke-dasharray="1,5" d="M262.271,-1038.72C249.723,-989.988 214.783,-852.875 189,-738 154.747,-585.388 212.317,-515.159 116.162,-387.125"/>
<polygon fill="none" stroke="black" points="118.789,-384.799 109.918,-379.006 113.24,-389.066 118.789,-384.799"/>
</g>
<!-- \\Parse\\ParseConfig -->
<g id="node21" class="node"><title>\\Parse\\ParseConfig</title>
<polygon fill="none" stroke="black" points="550.5,-1480 459.5,-1480 459.5,-1444 550.5,-1444 550.5,-1480"/>
<text text-anchor="middle" x="505" y="-1459.2" font-family="Courier,monospace" font-size="11.00">ParseConfig</text>
</g>
<!-- \\Parse\\ParsePush -->
<g id="node22" class="node"><title>\\Parse\\ParsePush</title>
<polygon fill="none" stroke="black" points="543.5,-1426 466.5,-1426 466.5,-1390 543.5,-1390 543.5,-1426"/>
<text text-anchor="middle" x="505" y="-1405.2" font-family="Courier,monospace" font-size="11.00">ParsePush</text>
</g>
<!-- \\Parse\\ParseSession -->
<g id="node23" class="node"><title>\\Parse\\ParseSession</title>
<polygon fill="none" stroke="black" points="554,-1588 456,-1588 456,-1552 554,-1552 554,-1588"/>
<text text-anchor="middle" x="505" y="-1567.2" font-family="Courier,monospace" font-size="11.00">ParseSession</text>
</g>
<!-- \\Parse\\ParseSession&#45;&gt;\\Parse\\ParseObject -->
<g id="edge7" class="edge"><title>\\Parse\\ParseSession&#45;&gt;\\Parse\\ParseObject</title>
<path fill="none" stroke="black" d="M455.911,-1564.39C442.162,-1560.48 428.38,-1553.93 419,-1543 284.492,-1386.32 479.485,-1242.39 347,-1084 340.722,-1076.49 332.244,-1071.07 323.186,-1067.16"/>
<polygon fill="none" stroke="black" points="324.198,-1063.8 313.605,-1063.59 321.759,-1070.36 324.198,-1063.8"/>
</g>
<!-- \\Parse\\ParseAggregateException -->
<g id="node24" class="node"><title>\\Parse\\ParseAggregateException</title>
<polygon fill="none" stroke="black" points="591,-1642 419,-1642 419,-1606 591,-1606 591,-1642"/>
<text text-anchor="middle" x="505" y="-1621.2" font-family="Courier,monospace" font-size="11.00">ParseAggregateException</text>
</g>
<!-- \\Parse\\ParseException -->
<g id="node36" class="node"><title>\\Parse\\ParseException</title>
<polygon fill="none" stroke="black" points="323.5,-1670 212.5,-1670 212.5,-1634 323.5,-1634 323.5,-1670"/>
<text text-anchor="middle" x="268" y="-1649.2" font-family="Courier,monospace" font-size="11.00">ParseException</text>
</g>
<!-- \\Parse\\ParseAggregateException&#45;&gt;\\Parse\\ParseException -->
<g id="edge8" class="edge"><title>\\Parse\\ParseAggregateException&#45;&gt;\\Parse\\ParseException</title>
<path fill="none" stroke="black" d="M418.827,-1634.15C390.765,-1637.49 360.035,-1641.15 333.749,-1644.29"/>
<polygon fill="none" stroke="black" points="333.049,-1640.84 323.533,-1645.5 333.877,-1647.79 333.049,-1640.84"/>
</g>
<!-- \\Parse\\ParseHooks -->
<g id="node25" class="node"><title>\\Parse\\ParseHooks</title>
<polygon fill="none" stroke="black" points="547,-1264 463,-1264 463,-1228 547,-1228 547,-1264"/>
<text text-anchor="middle" x="505" y="-1243.2" font-family="Courier,monospace" font-size="11.00">ParseHooks</text>
</g>
<!-- \\Parse\\ParseQuery -->
<g id="node26" class="node"><title>\\Parse\\ParseQuery</title>
<polygon fill="none" stroke="black" points="547,-1210 463,-1210 463,-1174 547,-1174 547,-1210"/>
<text text-anchor="middle" x="505" y="-1189.2" font-family="Courier,monospace" font-size="11.00">ParseQuery</text>
</g>
<!-- \\Parse\\ParseMemoryStorage -->
<g id="node27" class="node"><title>\\Parse\\ParseMemoryStorage</title>
<polygon fill="none" stroke="black" points="574,-302 436,-302 436,-266 574,-266 574,-302"/>
<text text-anchor="middle" x="505" y="-281.2" font-family="Courier,monospace" font-size="11.00">ParseMemoryStorage</text>
</g>
<!-- \\Parse\\ParseStorageInterface -->
<g id="node43" class="node"><title>\\Parse\\ParseStorageInterface</title>
<polygon fill="none" stroke="black" points="347,-276 189,-276 189,-240 347,-240 347,-276"/>
<text text-anchor="middle" x="268" y="-255.2" font-family="Courier,monospace" font-size="11.00">ParseStorageInterface</text>
</g>
<!-- \\Parse\\ParseMemoryStorage&#45;&gt;\\Parse\\ParseStorageInterface -->
<g id="edge12" class="edge"><title>\\Parse\\ParseMemoryStorage&#45;&gt;\\Parse\\ParseStorageInterface</title>
<path fill="none" stroke="black" stroke-dasharray="1,5" d="M435.713,-276.445C411.307,-273.745 383.444,-270.662 357.575,-267.8"/>
<polygon fill="none" stroke="black" points="357.716,-264.294 347.392,-266.673 356.946,-271.252 357.716,-264.294"/>
</g>
<!-- \\Parse\\ParseCloud -->
<g id="node28" class="node"><title>\\Parse\\ParseCloud</title>
<polygon fill="none" stroke="black" points="547,-1102 463,-1102 463,-1066 547,-1066 547,-1102"/>
<text text-anchor="middle" x="505" y="-1081.2" font-family="Courier,monospace" font-size="11.00">ParseCloud</text>
</g>
<!-- \\Parse\\ParseACL -->
<g id="node29" class="node"><title>\\Parse\\ParseACL</title>
<polygon fill="none" stroke="black" points="303.5,-222 232.5,-222 232.5,-186 303.5,-186 303.5,-222"/>
<text text-anchor="middle" x="268" y="-201.2" font-family="Courier,monospace" font-size="11.00">ParseACL</text>
</g>
<!-- \\Parse\\ParseACL&#45;&gt;\\Parse\\Internal\\Encodable -->
<g id="edge13" class="edge"><title>\\Parse\\ParseACL&#45;&gt;\\Parse\\Internal\\Encodable</title>
<path fill="none" stroke="black" stroke-dasharray="1,5" d="M232.208,-211.871C218.033,-216.106 201.968,-222.293 189,-231 146.425,-259.585 109.673,-307.361 89.2223,-337.198"/>
<polygon fill="none" stroke="black" points="86.0861,-335.59 83.4104,-345.841 91.895,-339.496 86.0861,-335.59"/>
</g>
<!-- \\Parse\\ParseFile -->
<g id="node30" class="node"><title>\\Parse\\ParseFile</title>
<polygon fill="none" stroke="black" points="306.5,-168 229.5,-168 229.5,-132 306.5,-132 306.5,-168"/>
<text text-anchor="middle" x="268" y="-147.2" font-family="Courier,monospace" font-size="11.00">ParseFile</text>
</g>
<!-- \\Parse\\ParseFile&#45;&gt;\\Parse\\Internal\\Encodable -->
<g id="edge14" class="edge"><title>\\Parse\\ParseFile&#45;&gt;\\Parse\\Internal\\Encodable</title>
<path fill="none" stroke="black" stroke-dasharray="1,5" d="M229.49,-157.434C215.717,-161.52 200.658,-167.716 189,-177 134.731,-220.214 98.6813,-295.904 82.2397,-336.471"/>
<polygon fill="none" stroke="black" points="78.8996,-335.401 78.4829,-345.987 85.4105,-337.971 78.8996,-335.401"/>
</g>
<!-- \\Parse\\ParseServerInfo -->
<g id="node31" class="node"><title>\\Parse\\ParseServerInfo</title>
<polygon fill="none" stroke="black" points="564,-1048 446,-1048 446,-1012 564,-1012 564,-1048"/>
<text text-anchor="middle" x="505" y="-1027.2" font-family="Courier,monospace" font-size="11.00">ParseServerInfo</text>
</g>
<!-- \\Parse\\ParseRelation -->
<g id="node32" class="node"><title>\\Parse\\ParseRelation</title>
<polygon fill="none" stroke="black" points="320,-114 216,-114 216,-78 320,-78 320,-114"/>
<text text-anchor="middle" x="268" y="-93.2" font-family="Courier,monospace" font-size="11.00">ParseRelation</text>
</g>
<!-- \\Parse\\ParseRelation&#45;&gt;\\Parse\\Internal\\Encodable -->
<g id="edge17" class="edge"><title>\\Parse\\ParseRelation&#45;&gt;\\Parse\\Internal\\Encodable</title>
<path fill="none" stroke="black" stroke-dasharray="1,5" d="M215.997,-107.178C206.261,-111.017 196.716,-116.15 189,-123 122.921,-181.665 90.4818,-285.99 78.1456,-335.892"/>
<polygon fill="none" stroke="black" points="74.727,-335.139 75.8135,-345.678 81.5363,-336.762 74.727,-335.139"/>
</g>
<!-- \\Parse\\ParseSessionStorage -->
<g id="node33" class="node"><title>\\Parse\\ParseSessionStorage</title>
<polygon fill="none" stroke="black" points="577.5,-248 432.5,-248 432.5,-212 577.5,-212 577.5,-248"/>
<text text-anchor="middle" x="505" y="-227.2" font-family="Courier,monospace" font-size="11.00">ParseSessionStorage</text>
</g>
<!-- \\Parse\\ParseSessionStorage&#45;&gt;\\Parse\\ParseStorageInterface -->
<g id="edge18" class="edge"><title>\\Parse\\ParseSessionStorage&#45;&gt;\\Parse\\ParseStorageInterface</title>
<path fill="none" stroke="black" stroke-dasharray="1,5" d="M432.215,-238.553C408.607,-241.366 382.082,-244.526 357.388,-247.469"/>
<polygon fill="none" stroke="black" points="356.813,-244.012 347.298,-248.671 357.641,-250.963 356.813,-244.012"/>
</g>
<!-- \\Parse\\ParseAnalytics -->
<g id="node34" class="node"><title>\\Parse\\ParseAnalytics</title>
<polygon fill="none" stroke="black" points="560.5,-940 449.5,-940 449.5,-904 560.5,-904 560.5,-940"/>
<text text-anchor="middle" x="505" y="-919.2" font-family="Courier,monospace" font-size="11.00">ParseAnalytics</text>
</g>
<!-- \\Parse\\ParseBytes -->
<g id="node35" class="node"><title>\\Parse\\ParseBytes</title>
<polygon fill="none" stroke="black" points="310,-60 226,-60 226,-24 310,-24 310,-60"/>
<text text-anchor="middle" x="268" y="-39.2" font-family="Courier,monospace" font-size="11.00">ParseBytes</text>
</g>
<!-- \\Parse\\ParseBytes&#45;&gt;\\Parse\\Internal\\Encodable -->
<g id="edge19" class="edge"><title>\\Parse\\ParseBytes&#45;&gt;\\Parse\\Internal\\Encodable</title>
<path fill="none" stroke="black" stroke-dasharray="1,5" d="M225.733,-49.1887C212.675,-53.188 199.044,-59.3914 189,-69 110.666,-143.935 83.6306,-277.941 75.3124,-335.953"/>
<polygon fill="none" stroke="black" points="71.8432,-335.49 73.9689,-345.87 78.7798,-336.43 71.8432,-335.49"/>
</g>
<!-- Exception -->
<g id="node44" class="node"><title>Exception</title>
<ellipse fill="none" stroke="black" cx="71" cy="-1994" rx="46.2923" ry="18"/>
<text text-anchor="middle" x="71" y="-1990.3" font-family="Times,serif" font-size="14.00" fill="gray">Exception</text>
</g>
<!-- \\Parse\\ParseException&#45;&gt;Exception -->
<g id="edge20" class="edge"><title>\\Parse\\ParseException&#45;&gt;Exception</title>
<path fill="none" stroke="black" d="M228.835,-1670.08C214.818,-1678.23 199.763,-1688.98 189,-1702 121.158,-1784.04 88.7946,-1910.45 77.2151,-1966.09"/>
<polygon fill="none" stroke="black" points="73.7758,-1965.44 75.2313,-1975.93 80.6378,-1966.82 73.7758,-1965.44"/>
</g>
<!-- \\Parse\\ParseSchema -->
<g id="node37" class="node"><title>\\Parse\\ParseSchema</title>
<polygon fill="none" stroke="black" points="550.5,-886 459.5,-886 459.5,-850 550.5,-850 550.5,-886"/>
<text text-anchor="middle" x="505" y="-865.2" font-family="Courier,monospace" font-size="11.00">ParseSchema</text>
</g>
<!-- \\Parse\\ParsePushStatus -->
<g id="node38" class="node"><title>\\Parse\\ParsePushStatus</title>
<polygon fill="none" stroke="black" points="564,-1372 446,-1372 446,-1336 564,-1336 564,-1372"/>
<text text-anchor="middle" x="505" y="-1351.2" font-family="Courier,monospace" font-size="11.00">ParsePushStatus</text>
</g>
<!-- \\Parse\\ParsePushStatus&#45;&gt;\\Parse\\ParseObject -->
<g id="edge22" class="edge"><title>\\Parse\\ParsePushStatus&#45;&gt;\\Parse\\ParseObject</title>
<path fill="none" stroke="black" d="M445.733,-1343.87C435.825,-1339.95 426.372,-1334.52 419,-1327 340.132,-1246.58 424.829,-1165.43 347,-1084 340.386,-1077.08 331.913,-1071.93 323.002,-1068.11"/>
<polygon fill="none" stroke="black" points="324.208,-1064.82 313.616,-1064.57 321.743,-1071.37 324.208,-1064.82"/>
</g>
<!-- \\Parse\\ParsePolygon -->
<g id="node39" class="node"><title>\\Parse\\ParsePolygon</title>
<polygon fill="none" stroke="black" points="317,-1129 219,-1129 219,-1093 317,-1093 317,-1129"/>
<text text-anchor="middle" x="268" y="-1108.2" font-family="Courier,monospace" font-size="11.00">ParsePolygon</text>
</g>
<!-- \\Parse\\ParsePolygon&#45;&gt;\\Parse\\Internal\\Encodable -->
<g id="edge23" class="edge"><title>\\Parse\\ParsePolygon&#45;&gt;\\Parse\\Internal\\Encodable</title>
<path fill="none" stroke="black" stroke-dasharray="1,5" d="M218.808,-1103.59C207.445,-1099.58 196.477,-1093.43 189,-1084 -4.70743,-839.584 295.514,-641.724 117,-386 116.938,-385.911 116.875,-385.822 116.812,-385.734"/>
<polygon fill="none" stroke="black" points="119.258,-383.229 109.795,-378.465 114.222,-388.09 119.258,-383.229"/>
</g>
<!-- \\Parse\\ParseLogs -->
<g id="node40" class="node"><title>\\Parse\\ParseLogs</title>
<polygon fill="none" stroke="black" points="543.5,-778 466.5,-778 466.5,-742 543.5,-742 543.5,-778"/>
<text text-anchor="middle" x="505" y="-757.2" font-family="Courier,monospace" font-size="11.00">ParseLogs</text>
</g>
<!-- \\Parse\\ParseAudience -->
<g id="node41" class="node"><title>\\Parse\\ParseAudience</title>
<polygon fill="none" stroke="black" points="557,-1318 453,-1318 453,-1282 557,-1282 557,-1318"/>
<text text-anchor="middle" x="505" y="-1297.2" font-family="Courier,monospace" font-size="11.00">ParseAudience</text>
</g>
<!-- \\Parse\\ParseAudience&#45;&gt;\\Parse\\ParseObject -->
<g id="edge25" class="edge"><title>\\Parse\\ParseAudience&#45;&gt;\\Parse\\ParseObject</title>
<path fill="none" stroke="black" d="M452.807,-1291.77C440.559,-1287.77 428.34,-1281.83 419,-1273 353.672,-1211.26 411.53,-1146.58 347,-1084 340.276,-1077.48 331.901,-1072.53 323.157,-1068.77"/>
<polygon fill="none" stroke="black" points="324.175,-1065.41 313.584,-1065.14 321.695,-1071.96 324.175,-1065.41"/>
</g>
<!-- \\Parse\\ParseRole -->
<g id="node42" class="node"><title>\\Parse\\ParseRole</title>
<polygon fill="none" stroke="black" points="543.5,-832 466.5,-832 466.5,-796 543.5,-796 543.5,-832"/>
<text text-anchor="middle" x="505" y="-811.2" font-family="Courier,monospace" font-size="11.00">ParseRole</text>
</g>
<!-- \\Parse\\ParseRole&#45;&gt;\\Parse\\ParseObject -->
<g id="edge26" class="edge"><title>\\Parse\\ParseRole&#45;&gt;\\Parse\\ParseObject</title>
<path fill="none" stroke="black" d="M466.393,-820.353C450.647,-824.364 432.83,-830.796 419,-841 350.206,-891.761 301.795,-983.835 280.757,-1029.62"/>
<polygon fill="none" stroke="black" points="277.485,-1028.36 276.571,-1038.92 283.868,-1031.24 277.485,-1028.36"/>
</g>
</g>
</svg>
